<mxfile host="65bd71144e">
    <diagram id="yABSBON5_DmEMwgWKBGt" name="Page-1">
        <mxGraphModel dx="766" dy="628" grid="1" gridSize="10" guides="1" tooltips="1" connect="1" arrows="1" fold="1" page="1" pageScale="1" pageWidth="850" pageHeight="1100" math="0" shadow="0">
            <root>
                <mxCell id="0"/>
                <mxCell id="1" parent="0"/>
                <mxCell id="53" style="edgeStyle=orthogonalEdgeStyle;html=1;exitX=0.5;exitY=1;exitDx=0;exitDy=0;entryX=0;entryY=0;entryDx=130.75;entryDy=0;entryPerimeter=0;fontSize=18;fontColor=#000000;strokeWidth=2;fillColor=#d80073;strokeColor=#A50040;" parent="1" source="28" target="16" edge="1">
                    <mxGeometry relative="1" as="geometry"/>
                </mxCell>
                <mxCell id="33" value="    #DetectorInner" style="swimlane;dashed=1;fontSize=18;fontColor=#000000;fillColor=none;" parent="1" vertex="1">
                    <mxGeometry x="139" y="120" width="600" height="215" as="geometry">
                        <mxRectangle x="139" y="120" width="170" height="30" as="alternateBounds"/>
                    </mxGeometry>
                </mxCell>
                <mxCell id="31" value="" style="group" parent="33" vertex="1" connectable="0">
                    <mxGeometry x="30" y="46" width="256" height="110" as="geometry"/>
                </mxCell>
                <mxCell id="13" value="&lt;span&gt;#&lt;/span&gt;&lt;span style=&quot;color: rgb(34 , 129 , 167) ; font-family: &amp;#34;droid sans mono&amp;#34; , &amp;#34;monospace&amp;#34; , &amp;#34;monospace&amp;#34; , &amp;#34;droid sans fallback&amp;#34; , &amp;#34;droid sans mono&amp;#34; , &amp;#34;monospace&amp;#34; , monospace ; font-size: 16px ; font-weight: 700&quot;&gt;DetectorInner()&lt;/span&gt;" style="shape=cube;whiteSpace=wrap;html=1;boundedLbl=1;backgroundOutline=1;darkOpacity=0.05;darkOpacity2=0.1;labelBackgroundColor=none;size=10;" parent="31" vertex="1">
                    <mxGeometry width="256" height="70" as="geometry"/>
                </mxCell>
                <mxCell id="6" value="&lt;span style=&quot;font-family: &amp;quot;droid sans mono&amp;quot;, &amp;quot;monospace&amp;quot;, &amp;quot;monospace&amp;quot;, &amp;quot;droid sans fallback&amp;quot;, &amp;quot;droid sans mono&amp;quot;, &amp;quot;monospace&amp;quot;, monospace; font-size: 16px;&quot;&gt;getCameraParam = false&lt;/span&gt;" style="rounded=0;whiteSpace=wrap;html=1;labelBackgroundColor=none;fillColor=#E6E6E6;fontColor=#000000;fontStyle=0" parent="31" vertex="1">
                    <mxGeometry x="19" y="70" width="225" height="40" as="geometry"/>
                </mxCell>
                <mxCell id="30" value="" style="group" parent="33" vertex="1" connectable="0">
                    <mxGeometry x="310" y="46" width="263.12" height="150" as="geometry"/>
                </mxCell>
                <mxCell id="14" value="&lt;span style=&quot;font-family: &amp;#34;droid sans mono&amp;#34; , &amp;#34;monospace&amp;#34; , &amp;#34;monospace&amp;#34; , &amp;#34;droid sans fallback&amp;#34; , &amp;#34;droid sans mono&amp;#34; , &amp;#34;monospace&amp;#34; , monospace ; font-size: 16px ; color: rgb(34 , 129 , 167) ; font-weight: bold&quot;&gt;#DetectorInner&lt;br&gt;&lt;/span&gt;&lt;span style=&quot;font-family: &amp;#34;droid sans mono&amp;#34; , &amp;#34;monospace&amp;#34; , &amp;#34;monospace&amp;#34; , &amp;#34;droid sans fallback&amp;#34; , &amp;#34;droid sans mono&amp;#34; , &amp;#34;monospace&amp;#34; , monospace ; font-size: 16px ; color: rgb(119 , 119 , 119)&quot;&gt;(&lt;/span&gt;&lt;span style=&quot;font-family: &amp;#34;droid sans mono&amp;#34; , &amp;#34;monospace&amp;#34; , &amp;#34;monospace&amp;#34; , &amp;#34;droid sans fallback&amp;#34; , &amp;#34;droid sans mono&amp;#34; , &amp;#34;monospace&amp;#34; , monospace ; font-size: 16px ; color: rgb(122 , 62 , 157) ; font-weight: bold&quot;&gt;psl&lt;/span&gt;&lt;span style=&quot;font-family: &amp;#34;droid sans mono&amp;#34; , &amp;#34;monospace&amp;#34; , &amp;#34;monospace&amp;#34; , &amp;#34;droid sans fallback&amp;#34; , &amp;#34;droid sans mono&amp;#34; , &amp;#34;monospace&amp;#34; , monospace ; font-size: 16px ; color: rgb(119 , 119 , 119)&quot;&gt;::&lt;/span&gt;&lt;span style=&quot;font-family: &amp;#34;droid sans mono&amp;#34; , &amp;#34;monospace&amp;#34; , &amp;#34;monospace&amp;#34; , &amp;#34;droid sans fallback&amp;#34; , &amp;#34;droid sans mono&amp;#34; , &amp;#34;monospace&amp;#34; , monospace ; font-size: 16px ; color: rgb(122 , 62 , 157) ; font-weight: bold&quot;&gt;CameraMoudleParam&lt;/span&gt;&lt;span style=&quot;font-family: &amp;#34;droid sans mono&amp;#34; , &amp;#34;monospace&amp;#34; , &amp;#34;monospace&amp;#34; , &amp;#34;droid sans fallback&amp;#34; , &amp;#34;droid sans mono&amp;#34; , &amp;#34;monospace&amp;#34; , monospace ; font-size: 16px ; color: rgb(60 , 175 , 166)&quot;&gt;&amp;amp;&lt;/span&gt;&lt;span style=&quot;font-family: &amp;#34;droid sans mono&amp;#34; , &amp;#34;monospace&amp;#34; , &amp;#34;monospace&amp;#34; , &amp;#34;droid sans fallback&amp;#34; , &amp;#34;droid sans mono&amp;#34; , &amp;#34;monospace&amp;#34; , monospace ; font-size: 16px ; color: rgb(119 , 119 , 119)&quot;&gt;)&lt;/span&gt;" style="shape=cube;whiteSpace=wrap;html=1;boundedLbl=1;backgroundOutline=1;darkOpacity=0.05;darkOpacity2=0.1;labelBackgroundColor=none;size=10;" parent="30" vertex="1">
                    <mxGeometry width="263.12" height="70" as="geometry"/>
                </mxCell>
                <mxCell id="27" value="&lt;span style=&quot;font-family: &amp;quot;droid sans mono&amp;quot;, &amp;quot;monospace&amp;quot;, &amp;quot;monospace&amp;quot;, &amp;quot;droid sans fallback&amp;quot;, &amp;quot;droid sans mono&amp;quot;, &amp;quot;monospace&amp;quot;, monospace; font-size: 16px;&quot;&gt;cameraParam = param&lt;/span&gt;" style="rounded=0;whiteSpace=wrap;html=1;labelBackgroundColor=none;fillColor=#E6E6E6;fontColor=#000000;fontStyle=0" parent="30" vertex="1">
                    <mxGeometry x="23.060000000000002" y="70" width="226.94" height="40" as="geometry"/>
                </mxCell>
                <mxCell id="28" value="&lt;span style=&quot;font-family: &amp;quot;droid sans mono&amp;quot;, &amp;quot;monospace&amp;quot;, &amp;quot;monospace&amp;quot;, &amp;quot;droid sans fallback&amp;quot;, &amp;quot;droid sans mono&amp;quot;, &amp;quot;monospace&amp;quot;, monospace; font-size: 16px;&quot;&gt;getCameraParam = true&lt;/span&gt;" style="rounded=0;whiteSpace=wrap;html=1;labelBackgroundColor=none;fillColor=#E6E6E6;fontColor=#000000;fontStyle=0" parent="30" vertex="1">
                    <mxGeometry x="23.060000000000002" y="110" width="226.94" height="40" as="geometry"/>
                </mxCell>
                <mxCell id="47" value="" style="group" parent="1" vertex="1" connectable="0">
                    <mxGeometry x="122.75" y="561" width="310" height="190" as="geometry"/>
                </mxCell>
                <mxCell id="46" value="&lt;span style=&quot;font-family: &amp;quot;droid sans mono&amp;quot;, &amp;quot;monospace&amp;quot;, &amp;quot;monospace&amp;quot;, &amp;quot;droid sans fallback&amp;quot;, &amp;quot;droid sans mono&amp;quot;, &amp;quot;monospace&amp;quot;, monospace; font-size: 16px;&quot;&gt;ready = inited&lt;/span&gt;" style="rounded=0;whiteSpace=wrap;html=1;labelBackgroundColor=none;fillColor=#E6E6E6;fontColor=#000000;fontStyle=0" parent="47" vertex="1">
                    <mxGeometry x="43.06" y="150" width="226.94" height="40" as="geometry"/>
                </mxCell>
                <mxCell id="39" value="&lt;font color=&quot;#777777&quot; face=&quot;droid sans mono, monospace, monospace, droid sans fallback, droid sans mono, monospace, monospace&quot;&gt;&lt;span style=&quot;font-size: 16px&quot;&gt;#&lt;/span&gt;&lt;/font&gt;&lt;span style=&quot;font-family: &amp;#34;droid sans mono&amp;#34; , &amp;#34;monospace&amp;#34; , &amp;#34;monospace&amp;#34; , &amp;#34;droid sans fallback&amp;#34; , &amp;#34;droid sans mono&amp;#34; , &amp;#34;monospace&amp;#34; , monospace ; font-size: 16px ; color: rgb(34 , 129 , 167) ; font-weight: bold&quot;&gt;SetParam&lt;br&gt;&lt;/span&gt;&lt;span style=&quot;font-family: &amp;#34;droid sans mono&amp;#34; , &amp;#34;monospace&amp;#34; , &amp;#34;monospace&amp;#34; , &amp;#34;droid sans fallback&amp;#34; , &amp;#34;droid sans mono&amp;#34; , &amp;#34;monospace&amp;#34; , monospace ; font-size: 16px ; color: rgb(119 , 119 , 119)&quot;&gt;(&lt;/span&gt;&lt;span style=&quot;font-family: &amp;#34;droid sans mono&amp;#34; , &amp;#34;monospace&amp;#34; , &amp;#34;monospace&amp;#34; , &amp;#34;droid sans fallback&amp;#34; , &amp;#34;droid sans mono&amp;#34; , &amp;#34;monospace&amp;#34; , monospace ; font-size: 16px ; color: rgb(60 , 175 , 166)&quot;&gt;const&lt;/span&gt;&lt;span style=&quot;font-family: &amp;#34;droid sans mono&amp;#34; , &amp;#34;monospace&amp;#34; , &amp;#34;monospace&amp;#34; , &amp;#34;droid sans fallback&amp;#34; , &amp;#34;droid sans mono&amp;#34; , &amp;#34;monospace&amp;#34; , monospace ; font-size: 16px ; background-color: rgb(245 , 245 , 245)&quot;&gt;&lt;font color=&quot;#201515&quot;&gt;&amp;nbsp;&lt;/font&gt;&lt;/span&gt;&lt;span style=&quot;font-family: &amp;#34;droid sans mono&amp;#34; , &amp;#34;monospace&amp;#34; , &amp;#34;monospace&amp;#34; , &amp;#34;droid sans fallback&amp;#34; , &amp;#34;droid sans mono&amp;#34; , &amp;#34;monospace&amp;#34; , monospace ; font-size: 16px ; color: rgb(122 , 62 , 157) ; font-weight: bold&quot;&gt;psl&lt;/span&gt;&lt;span style=&quot;font-family: &amp;#34;droid sans mono&amp;#34; , &amp;#34;monospace&amp;#34; , &amp;#34;monospace&amp;#34; , &amp;#34;droid sans fallback&amp;#34; , &amp;#34;droid sans mono&amp;#34; , &amp;#34;monospace&amp;#34; , monospace ; font-size: 16px ; color: rgb(119 , 119 , 119)&quot;&gt;::&lt;/span&gt;&lt;span style=&quot;font-family: &amp;#34;droid sans mono&amp;#34; , &amp;#34;monospace&amp;#34; , &amp;#34;monospace&amp;#34; , &amp;#34;droid sans fallback&amp;#34; , &amp;#34;droid sans mono&amp;#34; , &amp;#34;monospace&amp;#34; , monospace ; font-size: 16px ; color: rgb(122 , 62 , 157) ; font-weight: bold&quot;&gt;CameraMoudleParam&lt;/span&gt;&lt;span style=&quot;font-family: &amp;#34;droid sans mono&amp;#34; , &amp;#34;monospace&amp;#34; , &amp;#34;monospace&amp;#34; , &amp;#34;droid sans fallback&amp;#34; , &amp;#34;droid sans mono&amp;#34; , &amp;#34;monospace&amp;#34; , monospace ; font-size: 16px ; color: rgb(60 , 175 , 166)&quot;&gt;&amp;amp;&lt;/span&gt;&lt;span style=&quot;font-family: &amp;#34;droid sans mono&amp;#34; , &amp;#34;monospace&amp;#34; , &amp;#34;monospace&amp;#34; , &amp;#34;droid sans fallback&amp;#34; , &amp;#34;droid sans mono&amp;#34; , &amp;#34;monospace&amp;#34; , monospace ; font-size: 16px ; color: rgb(119 , 119 , 119)&quot;&gt;)&lt;/span&gt;" style="shape=cube;whiteSpace=wrap;html=1;boundedLbl=1;backgroundOutline=1;darkOpacity=0.05;darkOpacity2=0.1;labelBackgroundColor=none;size=10;" parent="47" vertex="1">
                    <mxGeometry width="310" height="70" as="geometry"/>
                </mxCell>
                <mxCell id="40" value="&lt;span style=&quot;font-family: &amp;quot;droid sans mono&amp;quot;, &amp;quot;monospace&amp;quot;, &amp;quot;monospace&amp;quot;, &amp;quot;droid sans fallback&amp;quot;, &amp;quot;droid sans mono&amp;quot;, &amp;quot;monospace&amp;quot;, monospace; font-size: 16px;&quot;&gt;cameraParam = param&lt;/span&gt;" style="rounded=0;whiteSpace=wrap;html=1;labelBackgroundColor=none;fillColor=#E6E6E6;fontColor=#000000;fontStyle=0" parent="47" vertex="1">
                    <mxGeometry x="43.06" y="70" width="226.94" height="40" as="geometry"/>
                </mxCell>
                <mxCell id="41" value="&lt;span style=&quot;font-family: &amp;quot;droid sans mono&amp;quot;, &amp;quot;monospace&amp;quot;, &amp;quot;monospace&amp;quot;, &amp;quot;droid sans fallback&amp;quot;, &amp;quot;droid sans mono&amp;quot;, &amp;quot;monospace&amp;quot;, monospace; font-size: 16px;&quot;&gt;getCameraParam = true&lt;/span&gt;" style="rounded=0;whiteSpace=wrap;html=1;labelBackgroundColor=none;fillColor=#E6E6E6;fontColor=#000000;fontStyle=0" parent="47" vertex="1">
                    <mxGeometry x="43.06" y="110" width="226.94" height="40" as="geometry"/>
                </mxCell>
                <mxCell id="56" style="edgeStyle=orthogonalEdgeStyle;html=1;exitX=0.5;exitY=1;exitDx=0;exitDy=0;entryX=0;entryY=0;entryDx=130.75;entryDy=0;entryPerimeter=0;fontSize=18;fontColor=#000000;strokeWidth=2;fillColor=#ffcd28;gradientColor=#ffa500;strokeColor=#d79b00;" parent="1" source="6" target="16" edge="1">
                    <mxGeometry relative="1" as="geometry">
                        <Array as="points">
                            <mxPoint x="300" y="360"/>
                            <mxPoint x="585" y="360"/>
                        </Array>
                    </mxGeometry>
                </mxCell>
                <mxCell id="60" style="edgeStyle=orthogonalEdgeStyle;html=1;exitX=0.5;exitY=1;exitDx=0;exitDy=0;entryX=0;entryY=0;entryDx=126.56;entryDy=0;entryPerimeter=0;fontSize=18;fontColor=#000000;strokeWidth=2;fillColor=#d80073;strokeColor=#A50040;" parent="1" source="59" target="14" edge="1">
                    <mxGeometry relative="1" as="geometry">
                        <Array as="points">
                            <mxPoint x="439" y="100"/>
                            <mxPoint x="576" y="100"/>
                        </Array>
                    </mxGeometry>
                </mxCell>
                <mxCell id="61" style="edgeStyle=orthogonalEdgeStyle;html=1;exitX=0.5;exitY=1;exitDx=0;exitDy=0;entryX=0;entryY=0;entryDx=123;entryDy=0;entryPerimeter=0;fontSize=18;fontColor=#000000;strokeWidth=2;fillColor=#ffcd28;gradientColor=#ffa500;strokeColor=#d79b00;" parent="1" source="59" target="13" edge="1">
                    <mxGeometry relative="1" as="geometry">
                        <Array as="points">
                            <mxPoint x="439" y="100"/>
                            <mxPoint x="292" y="100"/>
                        </Array>
                    </mxGeometry>
                </mxCell>
                <mxCell id="59" value="start" style="ellipse;whiteSpace=wrap;html=1;fontSize=18;fontColor=#000000;strokeColor=#000000;fillColor=#FFFFFF;" parent="1" vertex="1">
                    <mxGeometry x="379" y="20" width="120" height="50" as="geometry"/>
                </mxCell>
                <mxCell id="63" value="end" style="ellipse;whiteSpace=wrap;html=1;fontSize=18;fontColor=#000000;strokeColor=#000000;fillColor=#FFFFFF;" parent="1" vertex="1">
                    <mxGeometry x="369.75" y="820" width="120" height="50" as="geometry"/>
                </mxCell>
                <mxCell id="65" style="edgeStyle=orthogonalEdgeStyle;html=1;exitX=0.5;exitY=1;exitDx=0;exitDy=0;entryX=0;entryY=0.5;entryDx=0;entryDy=0;fontSize=18;fontColor=#000000;strokeWidth=2;fillColor=#ffcd28;gradientColor=#ffa500;strokeColor=#d79b00;" parent="1" source="46" target="63" edge="1">
                    <mxGeometry relative="1" as="geometry"/>
                </mxCell>
                <mxCell id="66" style="edgeStyle=orthogonalEdgeStyle;html=1;exitX=0.5;exitY=1;exitDx=0;exitDy=0;fontSize=18;fontColor=#000000;strokeWidth=2;fillColor=#d80073;strokeColor=#A50040;" parent="1" source="46" target="63" edge="1">
                    <mxGeometry relative="1" as="geometry"/>
                </mxCell>
                <mxCell id="67" style="edgeStyle=orthogonalEdgeStyle;html=1;exitX=0;exitY=0.5;exitDx=0;exitDy=0;entryX=0;entryY=0;entryDx=310;entryDy=40;entryPerimeter=0;fontSize=18;fontColor=#000000;strokeWidth=2;fillColor=#ffcd28;gradientColor=#ffa500;strokeColor=#d79b00;" parent="1" source="48" target="39" edge="1">
                    <mxGeometry relative="1" as="geometry"/>
                </mxCell>
                <mxCell id="68" value="&lt;h1&gt;ready 状态流转图&lt;/h1&gt;&lt;p&gt;- 带参构造后，只需要调用 Init 即可完成初始化；&lt;/p&gt;&lt;p&gt;- 无参构造，需调用 Init 后再调用 SetParam 才可以完成初始化；&lt;/p&gt;&lt;p&gt;- 只有 SetParam 来控制 ready 状态的确认；&lt;/p&gt;" style="text;html=1;strokeColor=none;fillColor=none;spacing=5;spacingTop=-20;whiteSpace=wrap;overflow=hidden;rounded=0;fontSize=18;fontColor=#000000;" parent="1" vertex="1">
                    <mxGeometry x="15" y="850" width="410" height="220" as="geometry"/>
                </mxCell>
                <mxCell id="71" value="" style="group" parent="1" vertex="1" connectable="0">
                    <mxGeometry x="455" y="398" width="275" height="263" as="geometry"/>
                </mxCell>
                <mxCell id="16" value="&lt;span style=&quot;font-family: &amp;#34;droid sans mono&amp;#34; , &amp;#34;monospace&amp;#34; , &amp;#34;monospace&amp;#34; , &amp;#34;droid sans fallback&amp;#34; , &amp;#34;droid sans mono&amp;#34; , &amp;#34;monospace&amp;#34; , monospace ; font-size: 16px ; color: rgb(119 , 119 , 119)&quot;&gt;#&lt;/span&gt;&lt;span style=&quot;font-family: &amp;#34;droid sans mono&amp;#34; , &amp;#34;monospace&amp;#34; , &amp;#34;monospace&amp;#34; , &amp;#34;droid sans fallback&amp;#34; , &amp;#34;droid sans mono&amp;#34; , &amp;#34;monospace&amp;#34; , monospace ; font-size: 16px ; color: rgb(34 , 129 , 167) ; font-weight: bold&quot;&gt;Init&lt;br&gt;&lt;/span&gt;&lt;span style=&quot;font-family: &amp;#34;droid sans mono&amp;#34; , &amp;#34;monospace&amp;#34; , &amp;#34;monospace&amp;#34; , &amp;#34;droid sans fallback&amp;#34; , &amp;#34;droid sans mono&amp;#34; , &amp;#34;monospace&amp;#34; , monospace ; font-size: 16px ; color: rgb(119 , 119 , 119)&quot;&gt;(&lt;/span&gt;&lt;span style=&quot;font-family: &amp;#34;droid sans mono&amp;#34; , &amp;#34;monospace&amp;#34; , &amp;#34;monospace&amp;#34; , &amp;#34;droid sans fallback&amp;#34; , &amp;#34;droid sans mono&amp;#34; , &amp;#34;monospace&amp;#34; , monospace ; font-size: 16px ; color: rgb(60 , 175 , 166)&quot;&gt;const&amp;nbsp;&lt;/span&gt;&lt;span style=&quot;font-family: &amp;#34;droid sans mono&amp;#34; , &amp;#34;monospace&amp;#34; , &amp;#34;monospace&amp;#34; , &amp;#34;droid sans fallback&amp;#34; , &amp;#34;droid sans mono&amp;#34; , &amp;#34;monospace&amp;#34; , monospace ; font-size: 16px ; color: rgb(122 , 62 , 157) ; font-weight: bold&quot;&gt;psl&lt;/span&gt;&lt;span style=&quot;font-family: &amp;#34;droid sans mono&amp;#34; , &amp;#34;monospace&amp;#34; , &amp;#34;monospace&amp;#34; , &amp;#34;droid sans fallback&amp;#34; , &amp;#34;droid sans mono&amp;#34; , &amp;#34;monospace&amp;#34; , monospace ; font-size: 16px ; color: rgb(119 , 119 , 119)&quot;&gt;::&lt;/span&gt;&lt;span style=&quot;font-family: &amp;#34;droid sans mono&amp;#34; , &amp;#34;monospace&amp;#34; , &amp;#34;monospace&amp;#34; , &amp;#34;droid sans fallback&amp;#34; , &amp;#34;droid sans mono&amp;#34; , &amp;#34;monospace&amp;#34; , monospace ; font-size: 16px ; color: rgb(122 , 62 , 157) ; font-weight: bold&quot;&gt;DetectorParam&lt;/span&gt;&lt;span style=&quot;font-family: &amp;#34;droid sans mono&amp;#34; , &amp;#34;monospace&amp;#34; , &amp;#34;monospace&amp;#34; , &amp;#34;droid sans fallback&amp;#34; , &amp;#34;droid sans mono&amp;#34; , &amp;#34;monospace&amp;#34; , monospace ; font-size: 16px ; color: rgb(60 , 175 , 166)&quot;&gt;&amp;amp;&lt;/span&gt;&lt;span style=&quot;font-family: &amp;#34;droid sans mono&amp;#34; , &amp;#34;monospace&amp;#34; , &amp;#34;monospace&amp;#34; , &amp;#34;droid sans fallback&amp;#34; , &amp;#34;droid sans mono&amp;#34; , &amp;#34;monospace&amp;#34; , monospace ; font-size: 16px ; color: rgb(119 , 119 , 119)&quot;&gt;)&lt;/span&gt;" style="shape=cube;whiteSpace=wrap;html=1;boundedLbl=1;backgroundOutline=1;darkOpacity=0.05;darkOpacity2=0.1;labelBackgroundColor=none;size=10;" parent="71" vertex="1">
                    <mxGeometry width="271.5" height="70" as="geometry"/>
                </mxCell>
                <mxCell id="19" value="&lt;span style=&quot;font-family: &amp;quot;droid sans mono&amp;quot;, &amp;quot;monospace&amp;quot;, &amp;quot;monospace&amp;quot;, &amp;quot;droid sans fallback&amp;quot;, &amp;quot;droid sans mono&amp;quot;, &amp;quot;monospace&amp;quot;, monospace; font-size: 16px;&quot;&gt;getCameraParam&lt;/span&gt;" style="rhombus;whiteSpace=wrap;html=1;fillColor=#E6E6E6;fontStyle=0;fontColor=#000000;" parent="71" vertex="1">
                    <mxGeometry x="36.75" y="70" width="200" height="60" as="geometry"/>
                </mxCell>
                <mxCell id="48" value="&lt;span style=&quot;font-family: &amp;quot;droid sans mono&amp;quot;, &amp;quot;monospace&amp;quot;, &amp;quot;monospace&amp;quot;, &amp;quot;droid sans fallback&amp;quot;, &amp;quot;droid sans mono&amp;quot;, &amp;quot;monospace&amp;quot;, monospace; font-size: 16px;&quot;&gt;inited = true&lt;/span&gt;" style="rounded=0;whiteSpace=wrap;html=1;labelBackgroundColor=none;fillColor=#E6E6E6;fontStyle=0;fontColor=#000000;" parent="71" vertex="1">
                    <mxGeometry x="23.279999999999973" y="183" width="226.94" height="40" as="geometry"/>
                </mxCell>
                <mxCell id="49" value="No" style="edgeStyle=orthogonalEdgeStyle;html=1;exitX=0.5;exitY=1;exitDx=0;exitDy=0;entryX=0.5;entryY=0;entryDx=0;entryDy=0;fontSize=18;fontColor=#000000;fillColor=#ffcd28;gradientColor=#ffa500;strokeColor=#d79b00;strokeWidth=2;" parent="71" source="19" target="48" edge="1">
                    <mxGeometry relative="1" as="geometry"/>
                </mxCell>
                <mxCell id="69" value="&lt;span style=&quot;font-family: &amp;#34;droid sans mono&amp;#34; , &amp;#34;monospace&amp;#34; , &amp;#34;monospace&amp;#34; , &amp;#34;droid sans fallback&amp;#34; , &amp;#34;droid sans mono&amp;#34; , &amp;#34;monospace&amp;#34; , monospace ; font-size: 16px&quot;&gt;SetParam(&lt;/span&gt;&lt;span style=&quot;font-family: &amp;#34;droid sans mono&amp;#34; , &amp;#34;monospace&amp;#34; , &amp;#34;monospace&amp;#34; , &amp;#34;droid sans fallback&amp;#34; , &amp;#34;droid sans mono&amp;#34; , &amp;#34;monospace&amp;#34; , monospace ; font-size: 16px&quot;&gt;cameraParam&lt;/span&gt;&lt;span style=&quot;font-family: &amp;#34;droid sans mono&amp;#34; , &amp;#34;monospace&amp;#34; , &amp;#34;monospace&amp;#34; , &amp;#34;droid sans fallback&amp;#34; , &amp;#34;droid sans mono&amp;#34; , &amp;#34;monospace&amp;#34; , monospace ; font-size: 16px&quot;&gt;)&lt;/span&gt;" style="rounded=0;whiteSpace=wrap;html=1;labelBackgroundColor=none;fillColor=#E6E6E6;fontStyle=0;fontColor=#000000;" parent="71" vertex="1">
                    <mxGeometry x="23.279999999999973" y="223" width="226.94" height="40" as="geometry"/>
                </mxCell>
                <mxCell id="70" value="Yes" style="edgeStyle=orthogonalEdgeStyle;html=1;exitX=1;exitY=0.5;exitDx=0;exitDy=0;entryX=1;entryY=0.5;entryDx=0;entryDy=0;fontSize=18;fontColor=#000000;strokeWidth=2;fillColor=#d80073;strokeColor=#A50040;" parent="71" source="19" target="69" edge="1">
                    <mxGeometry relative="1" as="geometry">
                        <Array as="points">
                            <mxPoint x="275" y="100"/>
                            <mxPoint x="275" y="243"/>
                        </Array>
                    </mxGeometry>
                </mxCell>
                <mxCell id="72" style="edgeStyle=orthogonalEdgeStyle;html=1;exitX=0;exitY=0.5;exitDx=0;exitDy=0;entryX=0;entryY=0;entryDx=310;entryDy=40;entryPerimeter=0;fontSize=18;fontColor=#000000;strokeWidth=2;fillColor=#d80073;strokeColor=#A50040;dashed=1;" parent="1" source="69" target="39" edge="1">
                    <mxGeometry relative="1" as="geometry"/>
                </mxCell>
                <mxCell id="73" value="&lt;span style=&quot;font-family: &amp;quot;droid sans mono&amp;quot;, &amp;quot;monospace&amp;quot;, &amp;quot;monospace&amp;quot;, &amp;quot;droid sans fallback&amp;quot;, &amp;quot;droid sans mono&amp;quot;, &amp;quot;monospace&amp;quot;, monospace; font-size: 16px;&quot;&gt;inited = true&lt;/span&gt;" style="rounded=0;whiteSpace=wrap;html=1;labelBackgroundColor=none;fillColor=#E6E6E6;fontStyle=0;fontColor=#000000;" vertex="1" parent="1">
                    <mxGeometry x="478.28" y="461" width="226.94" height="40" as="geometry"/>
                </mxCell>
                <mxCell id="74" value="" style="edgeStyle=none;html=1;" edge="1" parent="1" source="48" target="73">
                    <mxGeometry relative="1" as="geometry"/>
                </mxCell>
            </root>
        </mxGraphModel>
    </diagram>
</mxfile>